<?xml version="1.0" encoding="UTF-8" standalone="no"?>
<svg
   xmlns:dc="http://purl.org/dc/elements/1.1/"
   xmlns:cc="http://creativecommons.org/ns#"
   xmlns:rdf="http://www.w3.org/1999/02/22-rdf-syntax-ns#"
   xmlns:svg="http://www.w3.org/2000/svg"
   xmlns="http://www.w3.org/2000/svg"
   viewBox="0 0 1434.6667 819.54669"
   height="819.54669"
   width="1434.6667"
   xml:space="preserve"
   id="svg2"
   version="1.1"><metadata
     id="metadata8"><rdf:RDF><cc:Work
         rdf:about=""><dc:format>image/svg+xml</dc:format><dc:type
           rdf:resource="http://purl.org/dc/dcmitype/StillImage" /></cc:Work></rdf:RDF></metadata><defs
     id="defs6" /><g
     transform="matrix(1.3333333,0,0,-1.3333333,0,819.54667)"
     id="g10"><g
       transform="scale(0.1)"
       id="g12"><path
         id="path14"
         style="fill:#5dc694;fill-opacity:1;fill-rule:nonzero;stroke:none"
         d="M 10208.4,3550.1 H 3726.8 v 432.73 h 6481.6 V 3550.1" /><path
         id="path16"
         style="fill:#204e66;fill-opacity:1;fill-rule:nonzero;stroke:none"
         d="M 179.805,594.211 V 1328.6 H 0 v 304.73 h 179.805 v 447.94 H 612.504 V 1633.33 H 1060.45 V 1328.6 H 612.504 V 594.211 c 0,-167.602 70.101,-259.012 228.539,-259.012 100.574,0 182.847,33.52 219.407,54.852 V 73.1211 C 999.512,42.6484 883.719,0 716.121,0 338.242,0 179.805,249.852 179.805,594.211" /><path
         id="path18"
         style="fill:#204e66;fill-opacity:1;fill-rule:nonzero;stroke:none"
         d="M 2102.61,990.352 C 2504.87,871.52 2672.47,746.559 2672.47,460.129 2672.47,164.531 2443.93,0 2096.52,0 1858.85,0 1709.51,63.9883 1608.97,167.602 L 1602.88,48.7383 H 1298.15 V 600.301 h 335.2 C 1700.38,432.699 1834.47,323 2035.58,323 c 112.75,0 204.16,45.719 204.16,140.168 0,94.48 -88.37,134.094 -152.35,152.383 l -237.7,63.98 c -249.88,67.028 -560.7,149.309 -560.7,536.319 0,301.68 216.37,463.2 536.35,463.2 158.43,0 326.03,-45.72 450.99,-158.47 l 6.09,112.75 h 304.73 v -533.27 h -335.2 c -51.81,173.68 -182.85,259.01 -326.07,259.01 -112.75,0 -204.16,-48.74 -204.16,-149.31 0,-85.32 54.85,-121.88 164.56,-155.42 l 216.33,-63.988" /><path
         id="path20"
         style="fill:#204e66;fill-opacity:1;fill-rule:nonzero;stroke:none"
         d="m 3647.6,2133.08 c 0,140.18 97.5,246.84 259.01,246.84 161.51,0 259.01,-106.66 259.01,-246.84 0,-140.17 -97.5,-246.83 -259.01,-246.83 -161.51,0 -259.01,106.66 -259.01,246.83 z M 3553.11,48.7383 V 353.469 H 3726.8 V 1328.6 h -173.69 v 304.73 h 606.42 V 353.469 h 173.69 V 48.7383 h -780.11" /><path
         id="path22"
         style="fill:#204e66;fill-opacity:1;fill-rule:nonzero;stroke:none"
         d="m 6225.58,353.469 h 173.69 V 48.7383 h -780.1 V 353.469 h 173.68 V 923.32 c 0,201.12 -42.67,390.06 -268.17,390.06 -322.99,0 -347.37,-350.45 -347.37,-518.052 V 353.469 h 173.68 V 48.7383 h -780.1 V 353.469 h 173.69 V 1328.6 h -173.69 v 304.73 h 607.26 v -228.54 h -34.36 c 82.28,143.21 240.72,277.3 511.93,277.3 380.92,0 569.86,-280.35 569.86,-752.68 V 353.469" /><path
         id="path24"
         style="fill:#204e66;fill-opacity:1;fill-rule:nonzero;stroke:none"
         d="M 6636.97,48.7383 V 353.469 h 173.69 V 1328.6 h -173.69 v 304.73 h 173.69 v 152.38 c 0,344.33 158.47,594.21 536.34,594.21 143.22,0 246.84,-30.47 313.86,-57.9 v -316.94 c -45.72,18.3 -112.74,39.64 -188.93,39.64 -158.47,0 -228.54,-91.41 -228.54,-259.01 v -152.38 h 356.53 V 1328.6 H 7243.39 V 353.469 h 265.1 V 48.7383 h -871.52" /><path
         id="path26"
         style="fill:#204e66;fill-opacity:1;fill-rule:nonzero;stroke:none"
         d="m 8273.4,1057.38 h 691.73 c -42.67,231.61 -161.51,329.11 -341.31,329.11 -204.16,0 -310.82,-109.7 -350.42,-329.11 z m -12.21,-280.349 c 12.21,-304.73 134.09,-444.902 420.52,-444.902 170.68,0 353.5,67.062 447.98,149.332 L 9306.42,219.379 C 9184.51,100.539 8937.71,3.05078 8681.71,3.05078 c -597.25,0 -865.42,347.37122 -865.42,841.03922 0,466.24 240.74,838 801.44,838 505.84,0 740.5,-383.96 740.5,-810.57 0,-36.59 -3.04,-73.149 -6.09,-94.489 H 8261.19" /><path
         id="path28"
         style="fill:#204e66;fill-opacity:1;fill-rule:nonzero;stroke:none"
         d="m 10760,1663.8 v -402.23 c -24.4,3.04 -73.1,9.13 -121.9,9.13 -271.2,0 -429.7,-67.03 -429.7,-502.802 V 353.469 h 246.9 V 48.7383 H 9602.02 V 353.469 h 173.69 v 972.081 h -173.69 v 304.73 h 606.38 v -255.96 h -42.6 c 79.2,207.2 219.4,307.77 441.8,307.77 67.1,0 121.9,-9.13 152.4,-18.29" /><path
         id="path30"
         style="fill:#5dc694;fill-opacity:1;fill-rule:nonzero;stroke:none"
         d="M 4159.53,2684.65 H 3726.8 v 432.72 h 432.73 v -432.72" /><path
         id="path32"
         style="fill:#5dc694;fill-opacity:1;fill-rule:nonzero;stroke:none"
         d="M 612.344,2386 H 179.617 v 432.73 H 612.344 V 2386" /><path
         id="path34"
         style="fill:#5dc694;fill-opacity:1;fill-rule:nonzero;stroke:none"
         d="m 10208.4,1935.22 h -432.69 v 432.73 h 432.69 v -432.73" /><path
         id="path36"
         style="fill:#5dc694;fill-opacity:1;fill-rule:nonzero;stroke:none"
         d="m 7183.98,3982.83 h -432.72 v 432.73 h 432.72 v -432.73" /><path
         id="path38"
         style="fill:#5dc694;fill-opacity:1;fill-rule:nonzero;stroke:none"
         d="M 4159.53,3117.37 H 3726.8 v 432.73 h 432.73 v -432.73" /><path
         id="path40"
         style="fill:#5dc694;fill-opacity:1;fill-rule:nonzero;stroke:none"
         d="M 4159.53,3550.1 H 3726.8 v 432.73 h 432.73 V 3550.1" /><path
         id="path42"
         style="fill:#5dc694;fill-opacity:1;fill-rule:nonzero;stroke:none"
         d="m 10208.4,1935.22 h -432.69 v 2047.61 h 432.69 V 1935.22" /><path
         id="path44"
         style="fill:#5dc694;fill-opacity:1;fill-rule:nonzero;stroke:none"
         d="m 7183.98,3983.01 h -432.72 v 432.73 h 432.72 v -432.73" /><path
         id="path46"
         style="fill:#5dc694;fill-opacity:1;fill-rule:nonzero;stroke:none"
         d="m 7183.98,4415.74 h -432.72 v 432.73 h 432.72 v -432.73" /><path
         id="path48"
         style="fill:#5dc694;fill-opacity:1;fill-rule:nonzero;stroke:none"
         d="m 3898.16,5281.2 h -432.72 v 432.72 h 432.72 V 5281.2" /><path
         id="path50"
         style="fill:#5dc694;fill-opacity:1;fill-rule:nonzero;stroke:none"
         d="M 612.344,2386 H 179.617 V 5281.2 H 612.344 V 2386" /><path
         id="path52"
         style="fill:#5dc694;fill-opacity:1;fill-rule:nonzero;stroke:none"
         d="m 3898.16,5713.92 h -432.72 v 432.73 h 432.72 v -432.73" /><path
         id="path54"
         style="fill:#5dc694;fill-opacity:1;fill-rule:nonzero;stroke:none"
         d="m 6454.12,4848.47 h -432.73 v 432.73 h 432.73 v -432.73" /><path
         id="path56"
         style="fill:#5dc694;fill-opacity:1;fill-rule:nonzero;stroke:none"
         d="M 7183.98,4848.47 H 179.617 V 5281.2 H 7183.98 v -432.73" /></g></g></svg>