<svg baseProfile="full" height="700" version="1.1" width="1200" xmlns="http://www.w3.org/2000/svg" xmlns:ev="http://www.w3.org/2001/xml-events" xmlns:xlink="http://www.w3.org/1999/xlink"><defs /><g id="tree_1085"><g fill="none" id="edges" stroke="black"><path d="M 707.6618303571427 127.14285714285711 V 100.0 H 707.6618303571427" id="edge_1085_7413" /><path d="M 281.51413690476187 154.28571428571433 V 127.14285714285711 H 707.6618303571427" id="edge_1085_7397" /><path d="M 281.51413690476187 154.28612845284601 V 154.28571428571433 H 281.51413690476187" id="edge_1085_7382" /><path d="M 281.51413690476187 181.42857142857144 V 154.28612845284601 H 281.51413690476187" id="edge_1085_7292" /><path d="M 66.19047619047619 670.0 V 181.42857142857144 H 281.51413690476187" id="edge_1085_10" /><path d="M 122.38095238095238 670.0 V 181.42857142857144 H 281.51413690476187" id="edge_1085_13" /><path d="M 496.83779761904754 181.42898559570312 V 181.42857142857144 H 281.51413690476187" id="edge_1085_7184" /><path d="M 496.83779761904754 208.57142857142856 V 181.42898559570312 H 496.83779761904754" id="edge_1085_7011" /><path d="M 496.83779761904754 208.5718427385603 V 208.57142857142856 H 496.83779761904754" id="edge_1085_6947" /><path d="M 178.57142857142856 235.71428571428572 V 208.5718427385603 H 496.83779761904754" id="edge_1085_6806" /><path d="M 178.57142857142856 670.0 V 235.71428571428572 H 178.57142857142856" id="edge_1085_15" /><path d="M 815.1041666666665 235.71428571428572 V 208.5718427385603 H 496.83779761904754" id="edge_1085_6883" /><path d="M 636.875 262.8571428571429 V 235.71428571428572 H 815.1041666666665" id="edge_1085_6514" /><path d="M 636.875 262.85755702427457 V 262.8571428571429 H 636.875" id="edge_1085_6360" /><path d="M 636.875 290.0 V 262.85755702427457 H 636.875" id="edge_1085_6235" /><path d="M 636.875 290.0004141671317 V 290.0 H 636.875" id="edge_1085_6051" /><path d="M 636.875 317.14285714285717 V 290.0004141671317 H 636.875" id="edge_1085_5932" /><path d="M 505.17857142857144 344.2857142857143 V 317.14285714285717 H 636.875" id="edge_1085_5695" /><path d="M 505.17857142857144 371.42857142857144 V 344.2857142857143 H 505.17857142857144" id="edge_1085_5363" /><path d="M 505.17857142857144 398.57142857142856 V 371.42857142857144 H 505.17857142857144" id="edge_1085_5255" /><path d="M 410.3571428571429 425.7142857142857 V 398.57142857142856 H 505.17857142857144" id="edge_1085_5010" /><path d="M 305.0 452.8571428571429 V 425.7142857142857 H 410.3571428571429" id="edge_1085_4619" /><path d="M 234.76190476190476 615.7142857142857 V 452.8571428571429 H 305.0" id="edge_1085_896" /><path d="M 234.76190476190476 670.0 V 615.7142857142857 H 234.76190476190476" id="edge_1085_3" /><path d="M 375.23809523809524 480.0 V 452.8571428571429 H 305.0" id="edge_1085_4306" /><path d="M 319.04761904761904 588.5714285714286 V 480.0 H 375.23809523809524" id="edge_1085_2133" /><path d="M 290.95238095238096 615.7142857142857 V 588.5714285714286 H 319.04761904761904" id="edge_1085_451" /><path d="M 290.95238095238096 670.0 V 615.7142857142857 H 290.95238095238096" id="edge_1085_5" /><path d="M 347.14285714285717 615.7142857142857 V 588.5714285714286 H 319.04761904761904" id="edge_1085_1218" /><path d="M 347.14285714285717 670.0 V 615.7142857142857 H 347.14285714285717" id="edge_1085_1" /><path d="M 431.42857142857144 534.2857142857142 V 480.0 H 375.23809523809524" id="edge_1085_3325" /><path d="M 431.42857142857144 615.7142857142857 V 534.2857142857142 H 431.42857142857144" id="edge_1085_474" /><path d="M 403.33333333333337 670.0 V 615.7142857142857 H 431.42857142857144" id="edge_1085_8" /><path d="M 459.5238095238096 670.0 V 615.7142857142857 H 431.42857142857144" id="edge_1085_12" /><path d="M 515.7142857142858 507.1428571428571 V 425.7142857142857 H 410.3571428571429" id="edge_1085_3978" /><path d="M 515.7142857142858 534.2857142857142 V 507.1428571428571 H 515.7142857142858" id="edge_1085_3439" /><path d="M 515.7142857142858 588.5714285714286 V 534.2857142857142 H 515.7142857142858" id="edge_1085_2178" /><path d="M 515.7142857142858 670.0 V 588.5714285714286 H 515.7142857142858" id="edge_1085_0" /><path d="M 600.0 425.7142857142857 V 398.57142857142856 H 505.17857142857144" id="edge_1085_4907" /><path d="M 571.9047619047619 670.0 V 425.7142857142857 H 600.0" id="edge_1085_19" /><path d="M 628.0952380952381 588.5714285714286 V 425.7142857142857 H 600.0" id="edge_1085_1845" /><path d="M 628.0952380952381 615.7142857142857 V 588.5714285714286 H 628.0952380952381" id="edge_1085_133" /><path d="M 628.0952380952381 670.0 V 615.7142857142857 H 628.0952380952381" id="edge_1085_14" /><path d="M 768.5714285714284 480.0 V 317.14285714285717 H 636.875" id="edge_1085_4161" /><path d="M 684.2857142857142 670.0 V 480.0 H 768.5714285714284" id="edge_1085_17" /><path d="M 740.4761904761904 670.0 V 480.0 H 768.5714285714284" id="edge_1085_11" /><path d="M 796.6666666666665 534.2857142857142 V 480.0 H 768.5714285714284" id="edge_1085_3202" /><path d="M 796.6666666666665 670.0 V 534.2857142857142 H 796.6666666666665" id="edge_1085_16" /><path d="M 852.8571428571427 507.1428571428571 V 480.0 H 768.5714285714284" id="edge_1085_3756" /><path d="M 852.8571428571427 670.0 V 507.1428571428571 H 852.8571428571427" id="edge_1085_4" /><path d="M 909.0476190476188 262.8571428571429 V 235.71428571428572 H 815.1041666666665" id="edge_1085_6531" /><path d="M 909.0476190476188 670.0 V 262.8571428571429 H 909.0476190476188" id="edge_1085_9" /><path d="M 993.333333333333 235.7146998814174 V 235.71428571428572 H 815.1041666666665" id="edge_1085_6624" /><path d="M 993.333333333333 262.8571428571429 V 235.7146998814174 H 993.333333333333" id="edge_1085_6390" /><path d="M 965.238095238095 670.0 V 262.8571428571429 H 993.333333333333" id="edge_1085_2" /><path d="M 1021.4285714285711 534.2857142857142 V 262.8571428571429 H 993.333333333333" id="edge_1085_3246" /><path d="M 1021.4285714285711 670.0 V 534.2857142857142 H 1021.4285714285711" id="edge_1085_18" /><path d="M 1077.6190476190473 670.0 V 127.14285714285711 H 707.6618303571427" id="edge_1085_6" /><path d="M 1133.8095238095234 670.0 V 127.14285714285711 H 707.6618303571427" id="edge_1085_7" /></g><g id="symbols"><g class="nodes"><circle cx="707.6618303571427" cy="100.0" id="node_1085_7414" r="3" /><circle cx="707.6618303571427" cy="127.14285714285711" id="node_1085_7413" r="3" /><circle cx="281.51413690476187" cy="154.28571428571433" id="node_1085_7397" r="3" /><circle cx="281.51413690476187" cy="154.28612845284601" id="node_1085_7382" r="3" /><circle cx="281.51413690476187" cy="181.42857142857144" id="node_1085_7292" r="3" /><circle cx="66.19047619047619" cy="670.0" fill="blue" id="node_1085_10" r="3" /><circle cx="122.38095238095238" cy="670.0" fill="blue" id="node_1085_13" r="3" /><circle cx="496.83779761904754" cy="181.42898559570312" id="node_1085_7184" r="3" /><circle cx="496.83779761904754" cy="208.57142857142856" id="node_1085_7011" r="3" /><circle cx="496.83779761904754" cy="208.5718427385603" id="node_1085_6947" r="3" /><circle cx="178.57142857142856" cy="235.71428571428572" id="node_1085_6806" r="3" /><circle cx="178.57142857142856" cy="670.0" fill="blue" id="node_1085_15" r="3" /><circle cx="815.1041666666665" cy="235.71428571428572" id="node_1085_6883" r="3" /><circle cx="636.875" cy="262.8571428571429" id="node_1085_6514" r="3" /><circle cx="636.875" cy="262.85755702427457" id="node_1085_6360" r="3" /><circle cx="636.875" cy="290.0" id="node_1085_6235" r="3" /><circle cx="636.875" cy="290.0004141671317" id="node_1085_6051" r="3" /><circle cx="636.875" cy="317.14285714285717" id="node_1085_5932" r="3" /><circle cx="505.17857142857144" cy="344.2857142857143" id="node_1085_5695" r="3" /><circle cx="505.17857142857144" cy="371.42857142857144" id="node_1085_5363" r="3" /><circle cx="505.17857142857144" cy="398.57142857142856" id="node_1085_5255" r="3" /><circle cx="410.3571428571429" cy="425.7142857142857" id="node_1085_5010" r="3" /><circle cx="305.0" cy="452.8571428571429" id="node_1085_4619" r="3" /><circle cx="234.76190476190476" cy="615.7142857142857" id="node_1085_896" r="3" /><circle cx="234.76190476190476" cy="670.0" fill="red" id="node_1085_3" r="3" /><circle cx="375.23809523809524" cy="480.0" id="node_1085_4306" r="3" /><circle cx="319.04761904761904" cy="588.5714285714286" id="node_1085_2133" r="3" /><circle cx="290.95238095238096" cy="615.7142857142857" id="node_1085_451" r="3" /><circle cx="290.95238095238096" cy="670.0" fill="red" id="node_1085_5" r="3" /><circle cx="347.14285714285717" cy="615.7142857142857" id="node_1085_1218" r="3" /><circle cx="347.14285714285717" cy="670.0" fill="red" id="node_1085_1" r="3" /><circle cx="431.42857142857144" cy="534.2857142857142" id="node_1085_3325" r="3" /><circle cx="431.42857142857144" cy="615.7142857142857" id="node_1085_474" r="3" /><circle cx="403.33333333333337" cy="670.0" fill="red" id="node_1085_8" r="3" /><circle cx="459.5238095238096" cy="670.0" fill="blue" id="node_1085_12" r="3" /><circle cx="515.7142857142858" cy="507.1428571428571" id="node_1085_3978" r="3" /><circle cx="515.7142857142858" cy="534.2857142857142" id="node_1085_3439" r="3" /><circle cx="515.7142857142858" cy="588.5714285714286" id="node_1085_2178" r="3" /><circle cx="515.7142857142858" cy="670.0" fill="red" id="node_1085_0" r="3" /><circle cx="600.0" cy="425.7142857142857" id="node_1085_4907" r="3" /><circle cx="571.9047619047619" cy="670.0" fill="blue" id="node_1085_19" r="3" /><circle cx="628.0952380952381" cy="588.5714285714286" id="node_1085_1845" r="3" /><circle cx="628.0952380952381" cy="615.7142857142857" id="node_1085_133" r="3" /><circle cx="628.0952380952381" cy="670.0" fill="blue" id="node_1085_14" r="3" /><circle cx="768.5714285714284" cy="480.0" id="node_1085_4161" r="3" /><circle cx="684.2857142857142" cy="670.0" fill="blue" id="node_1085_17" r="3" /><circle cx="740.4761904761904" cy="670.0" fill="blue" id="node_1085_11" r="3" /><circle cx="796.6666666666665" cy="534.2857142857142" id="node_1085_3202" r="3" /><circle cx="796.6666666666665" cy="670.0" fill="blue" id="node_1085_16" r="3" /><circle cx="852.8571428571427" cy="507.1428571428571" id="node_1085_3756" r="3" /><circle cx="852.8571428571427" cy="670.0" fill="red" id="node_1085_4" r="3" /><circle cx="909.0476190476188" cy="262.8571428571429" id="node_1085_6531" r="3" /><circle cx="909.0476190476188" cy="670.0" fill="red" id="node_1085_9" r="3" /><circle cx="993.333333333333" cy="235.7146998814174" id="node_1085_6624" r="3" /><circle cx="993.333333333333" cy="262.8571428571429" id="node_1085_6390" r="3" /><circle cx="965.238095238095" cy="670.0" fill="red" id="node_1085_2" r="3" /><circle cx="1021.4285714285711" cy="534.2857142857142" id="node_1085_3246" r="3" /><circle cx="1021.4285714285711" cy="670.0" fill="blue" id="node_1085_18" r="3" /><circle cx="1077.6190476190473" cy="670.0" fill="red" id="node_1085_6" r="3" /><circle cx="1133.8095238095234" cy="670.0" fill="red" id="node_1085_7" r="3" /></g><g class="mutations" fill="red"><rect height="6" transform="translate(-3, -3)" width="6" x="431.42857142857144" y="575.0" /></g></g><g font-size="14" id="labels"><g class="nodes"><g text-anchor="start"><text x="501.83779761904754" y="176.42898559570312" /><text x="820.1041666666665" y="230.71428571428572" /><text x="380.23809523809524" y="475.0" /><text x="352.14285714285717" y="610.7142857142857" /><text x="436.42857142857144" y="529.2857142857142" /><text x="520.7142857142858" y="502.1428571428571" /><text x="605.0" y="420.7142857142857" /><text x="633.0952380952381" y="583.5714285714286" /><text x="773.5714285714284" y="475.0" /><text x="801.6666666666665" y="529.2857142857142" /><text x="857.8571428571427" y="502.1428571428571" /><text x="914.0476190476188" y="257.8571428571429" /><text x="998.333333333333" y="230.7146998814174" /><text x="1026.428571428571" y="529.2857142857142" /></g><g text-anchor="middle"><text x="707.6618303571427" y="95.0" /><text x="66.19047619047619" y="690.0">FR041</text><text x="122.38095238095238" y="690.0">FR044</text><text x="178.57142857142856" y="690.0">FR046</text><text x="234.76190476190476" y="690.0">8L19766</text><text x="290.95238095238096" y="690.0">8M31651</text><text x="347.14285714285717" y="690.0">8934547</text><text x="403.33333333333337" y="690.0">8N73604</text><text x="459.5238095238096" y="690.0">FR044</text><text x="515.7142857142858" y="690.0">8934547</text><text x="571.9047619047619" y="690.0">FR050</text><text x="628.0952380952381" y="690.0">FR046</text><text x="684.2857142857142" y="690.0">FR048</text><text x="740.4761904761904" y="690.0">FR041</text><text x="796.6666666666665" y="690.0">FR048</text><text x="852.8571428571427" y="690.0">8M31651</text><text x="909.0476190476188" y="690.0">8N73604</text><text x="965.238095238095" y="690.0">8L19766</text><text x="1021.4285714285711" y="690.0">FR050</text><text x="1077.6190476190473" y="690.0">8N05890</text><text x="1133.8095238095234" y="690.0">8N05890</text></g><g text-anchor="end"><text x="702.6618303571427" y="122.14285714285711" /><text x="276.51413690476187" y="149.28571428571433" /><text x="276.51413690476187" y="149.28612845284601" /><text x="276.51413690476187" y="176.42857142857144" /><text x="491.83779761904754" y="203.57142857142856" /><text x="491.83779761904754" y="203.5718427385603" /><text x="173.57142857142856" y="230.71428571428572" /><text x="631.875" y="257.8571428571429" /><text x="631.875" y="257.85755702427457" /><text x="631.875" y="285.0" /><text x="631.875" y="285.0004141671317" /><text x="631.875" y="312.14285714285717" /><text x="500.17857142857144" y="339.2857142857143" /><text x="500.17857142857144" y="366.42857142857144" /><text x="500.17857142857144" y="393.57142857142856" /><text x="405.3571428571429" y="420.7142857142857" /><text x="300.0" y="447.8571428571429" /><text x="229.76190476190476" y="610.7142857142857" /><text x="314.04761904761904" y="583.5714285714286" /><text x="285.95238095238096" y="610.7142857142857" /><text x="426.42857142857144" y="610.7142857142857" /><text x="510.7142857142858" y="529.2857142857142" /><text x="510.7142857142858" y="583.5714285714286" /><text x="623.0952380952381" y="610.7142857142857" /><text x="988.333333333333" y="257.8571428571429" /></g></g><g class="mutations" font-style="italic"><g text-anchor="start" /><g text-anchor="end"><text x="426.42857142857144" y="579.0">2023</text></g></g></g></g></svg>